<?xml version="1.0" encoding="UTF-8" standalone="no"?>
<!-- Created with Inkscape (http://www.inkscape.org/) -->

<svg
   xmlns:dc="http://purl.org/dc/elements/1.1/"
   xmlns:cc="http://creativecommons.org/ns#"
   xmlns:rdf="http://www.w3.org/1999/02/22-rdf-syntax-ns#"
   xmlns:svg="http://www.w3.org/2000/svg"
   xmlns="http://www.w3.org/2000/svg"
   xmlns:sodipodi="http://sodipodi.sourceforge.net/DTD/sodipodi-0.dtd"
   xmlns:inkscape="http://www.inkscape.org/namespaces/inkscape"
   width="210mm"
   height="297mm"
   viewBox="0 0 210 297"
   version="1.1"
   id="svg8"
   inkscape:version="0.92.2 (5c3e80d, 2017-08-06)"
   sodipodi:docname="pyeff_logo_github.svg">
  <sodipodi:namedview
     id="base"
     pagecolor="#ffffff"
     bordercolor="#666666"
     borderopacity="1.0"
     inkscape:pageopacity="0.0"
     inkscape:pageshadow="2"
     inkscape:zoom="0.49497475"
     inkscape:cx="79.598125"
     inkscape:cy="662.6847"
     inkscape:document-units="mm"
     inkscape:current-layer="layer1"
     showgrid="false"
     inkscape:window-width="1853"
     inkscape:window-height="1145"
     inkscape:window-x="67"
     inkscape:window-y="27"
     inkscape:window-maximized="1" />
  <defs
     id="defs2" />
  <metadata
     id="metadata5">
    <rdf:RDF>
      <cc:Work
         rdf:about="">
        <dc:format>image/svg+xml</dc:format>
        <dc:type
           rdf:resource="http://purl.org/dc/dcmitype/StillImage" />
        <dc:title></dc:title>
      </cc:Work>
    </rdf:RDF>
  </metadata>
  <g
     id="layer1"
     inkscape:groupmode="layer"
     inkscape:label="Layer 1">
    <g
       id="g1228"
       transform="matrix(0.44647941,0,0,0.46378407,8.5117911,35.883506)"
       inkscape:export-xdpi="96"
       inkscape:export-ydpi="96">
      <path
         transform="matrix(1.1319333,0,0,1.1565711,-42.876676,-202.47695)"
         d="m 105.83334,194.94641 c 3.90394,1.40238 0.0357,5.95431 -2.33085,6.48859 -6.41315,1.44788 -10.852009,-5.54825 -10.64633,-11.15029 0.367912,-10.02074 10.74138,-16.0647 19.96974,-14.80407 13.54299,1.85001 21.38445,15.98781 18.96181,28.78918 -3.229,17.06222 -21.25092,26.74698 -37.608627,23.11955 -20.584505,-4.56475 -32.131054,-26.52143 -27.277289,-46.42807 5.87856,-24.10961 31.796001,-37.5275 55.247516,-31.43503 27.6368,7.17977 42.9317,37.07308 35.59277,64.06696 -8.47309,31.1655 -42.35185,48.34106 -72.886405,39.75051 -34.695307,-9.76114 -53.754053,-47.63179 -43.908248,-81.70585 11.045506,-38.22595 52.912597,-59.16967 90.525293,-48.06599 41.75721,12.3272 64.58727,58.19407 52.22372,99.34474"
         sodipodi:t0="0"
         sodipodi:argument="-18.504688"
         sodipodi:radius="82.734489"
         sodipodi:revolution="3"
         sodipodi:expansion="1"
         sodipodi:cy="194.94641"
         sodipodi:cx="105.83334"
         id="path86"
         style="fill:#ccff00;fill-opacity:1;fill-rule:evenodd;stroke:#008000;stroke-width:1.13617897;stroke-miterlimit:4;stroke-dasharray:none;stroke-opacity:0.96470588"
         sodipodi:type="spiral" />
    </g>
    <path
       style="opacity:1;fill:#d4ff2a;fill-opacity:1;stroke:#000000;stroke-width:1.75478065;stroke-miterlimit:4;stroke-dasharray:none;stroke-opacity:0"
       d=""
       id="path1067"
       inkscape:connector-curvature="0"
       inkscape:export-xdpi="96"
       inkscape:export-ydpi="96"
       transform="scale(0.26458333)" />
    <path
       style="opacity:1;fill:#ccff00;fill-opacity:1;stroke:#078400;stroke-width:1.34983134;stroke-miterlimit:4;stroke-dasharray:none;stroke-opacity:1"
       d=""
       id="path1085"
       inkscape:connector-curvature="0"
       inkscape:export-xdpi="96"
       inkscape:export-ydpi="96"
       transform="scale(0.26458333)" />
    <path
       style="opacity:1;fill:#ccff00;fill-opacity:1;stroke:#d4ff2a;stroke-width:1.34983134;stroke-miterlimit:4;stroke-dasharray:none;stroke-opacity:1"
       d=""
       id="path1095"
       inkscape:connector-curvature="0"
       inkscape:export-xdpi="96"
       inkscape:export-ydpi="96"
       transform="scale(0.26458333)" />
    <path
       style="opacity:1;fill:#ccff00;fill-opacity:1;stroke:#d4ff2a;stroke-width:0.33745784;stroke-miterlimit:4;stroke-dasharray:none;stroke-opacity:1"
       d=""
       id="path1097"
       inkscape:connector-curvature="0"
       inkscape:export-xdpi="96"
       inkscape:export-ydpi="96"
       transform="scale(0.26458333)" />
    <path
       style="opacity:1;fill:#ccff00;fill-opacity:1;stroke:#d4ff2a;stroke-width:0.33745784;stroke-miterlimit:4;stroke-dasharray:none;stroke-opacity:1"
       d=""
       id="path1107"
       inkscape:connector-curvature="0"
       inkscape:export-xdpi="96"
       inkscape:export-ydpi="96"
       transform="scale(0.26458333)" />
    <path
       style="opacity:1;fill:#ccff00;fill-opacity:1;stroke:#d4ff2a;stroke-width:0.33745784;stroke-miterlimit:4;stroke-dasharray:none;stroke-opacity:1"
       d=""
       id="path1115"
       inkscape:connector-curvature="0"
       inkscape:export-xdpi="96"
       inkscape:export-ydpi="96"
       transform="scale(0.26458333)" />
    <path
       style="opacity:1;fill:#ccff00;fill-opacity:1;stroke:#d4ff2a;stroke-width:1.1831286;stroke-miterlimit:4;stroke-dasharray:none;stroke-opacity:1"
       d="m 38.749877,63.843086 c -0.26253,-0.0537 -1.06801,-0.21695 -1.789959,-0.36278 -3.012342,-0.60846 -7.142112,-3.28137 -9.321507,-6.03314 -3.228591,-4.07651 -4.663192,-8.69661 -4.469652,-14.39441 0.09763,-2.87425 0.20072,-3.50076 0.945871,-5.74868 1.201276,-3.62391 2.491561,-5.72069 5.312668,-8.63339 2.782932,-2.87328 5.172146,-4.41263 8.658691,-5.5787 3.044403,-1.01821 5.212138,-1.32268 8.301028,-1.16595 7.039684,0.35721 13.38518,3.98552 17.837293,10.19921 3.303242,4.61026 5.429309,11.26667 5.429309,16.99835 0,1.74076 -0.590948,6.26798 -0.888535,6.80705 -0.171364,0.31041 -2.330418,-0.43781 -11.399678,-3.95053 l -0.954641,-0.36976 0.07856,-2.01077 c 0.268694,-6.878 -4.048799,-12.9014 -9.923309,-13.84415 -4.222913,-0.6777 -8.701495,1.79803 -10.070066,5.56666 -0.744183,2.04926 -0.617508,4.75494 0.298654,6.37884 2.032991,3.60348 6.034749,3.80142 7.175397,0.35491 l 0.286889,-0.86686 5.599623,2.12092 c 3.079786,1.1665 5.642262,2.1574 5.694387,2.202 0.216286,0.18507 -1.024937,3.53493 -1.802372,4.86433 -1.615071,2.76173 -4.50061,5.24197 -7.446037,6.40016 -2.319645,0.91213 -5.862228,1.41246 -7.55261,1.06669 z"
       id="path1225"
       inkscape:connector-curvature="0"
       inkscape:export-xdpi="96"
       inkscape:export-ydpi="96" />
    <path
       sodipodi:type="spiral"
       style="fill:none;fill-rule:evenodd;stroke:#008000;stroke-width:3;stroke-miterlimit:4;stroke-dasharray:none;stroke-opacity:0.96470588"
       id="path1230"
       sodipodi:cx="103.64657"
       sodipodi:cy="179.07784"
       sodipodi:expansion="1"
       sodipodi:revolution="3"
       sodipodi:radius="84.375938"
       sodipodi:argument="-18.459639"
       sodipodi:t0="0"
       d="m 103.64657,179.07784 c 3.91294,1.60805 -0.23712,6.06791 -2.67269,6.50356 -6.600254,1.18055 -10.801269,-6.15101 -10.334432,-11.84895 0.835062,-10.19228 11.681192,-15.87347 21.025192,-14.1653 13.71271,2.50681 21.05231,17.27061 17.99617,30.20145 -4.07335,17.23478 -22.87898,26.27395 -39.377701,21.82704 -20.761953,-5.596 -31.517213,-28.49589 -25.657902,-48.55396 7.096412,-24.293 34.117493,-36.77289 57.730203,-29.48877 27.82676,8.58409 42.03635,39.74202 33.31964,66.90646 -10.06379,31.36242 -45.36848,47.305 -76.082708,37.15051 -34.899453,-11.53818 -52.577284,-50.99633 -40.981375,-85.25896 13.008857,-38.4375 56.625172,-57.852214 94.435213,-44.81225 41.97631,14.47684 63.12912,62.25478 48.64311,103.61147"
       transform="matrix(0.44647941,0,0,0.46378407,-3.4212416,-36.506421)"
       inkscape:export-xdpi="96"
       inkscape:export-ydpi="96" />
    <ellipse
       style="opacity:1;fill:#d4ff2a;fill-opacity:0.96256684;stroke:#078400;stroke-width:0.45504948;stroke-miterlimit:4;stroke-dasharray:none;stroke-opacity:1"
       id="path60"
       cx="46.025017"
       cy="50.152725"
       rx="6.2440677"
       ry="6.3107762"
       inkscape:export-xdpi="96"
       inkscape:export-ydpi="96" />
    <ellipse
       style="opacity:1;fill:#008000;fill-opacity:0.96256684;stroke:#005a00;stroke-width:0;stroke-miterlimit:4;stroke-dasharray:none;stroke-opacity:1"
       id="path62"
       cx="73.870186"
       cy="37.60379"
       rx="4.0502062"
       ry="4.0318851"
       inkscape:export-xdpi="96"
       inkscape:export-ydpi="96" />
    <text
       xml:space="preserve"
       style="font-style:normal;font-weight:normal;font-size:11.23719406px;line-height:1.25;font-family:sans-serif;letter-spacing:0px;word-spacing:0px;fill:#000000;fill-opacity:1;stroke:none;stroke-width:0.1203985"
       x="42.14542"
       y="53.235382"
       id="text66"
       inkscape:transform-center-x="-4.3877226"
       inkscape:transform-center-y="-4.5577804"
       transform="scale(0.9811667,1.0191948)"
       inkscape:export-xdpi="96"
       inkscape:export-ydpi="96"><tspan
         sodipodi:role="line"
         id="tspan64"
         x="42.14542"
         y="53.235382"
         style="font-size:11.23719406px;stroke-width:0.1203985">+</tspan></text>
    <text
       xml:space="preserve"
       style="font-style:normal;font-weight:normal;font-size:11.23719406px;line-height:1.25;font-family:sans-serif;letter-spacing:0px;word-spacing:0px;fill:#000000;fill-opacity:1;stroke:none;stroke-width:0.1203985"
       x="72.988312"
       y="39.902191"
       id="text66-3"
       inkscape:transform-center-x="-4.3877215"
       inkscape:transform-center-y="-4.5577837"
       transform="scale(0.9811667,1.0191948)"
       inkscape:export-xdpi="96"
       inkscape:export-ydpi="96"><tspan
         sodipodi:role="line"
         id="tspan64-6"
         x="72.988312"
         y="39.902191"
         style="font-size:11.23719406px;fill:#000000;stroke-width:0.1203985">-</tspan></text>
    <ellipse
       style="opacity:1;fill:#008000;fill-opacity:0.96256684;stroke:#005a00;stroke-width:0;stroke-miterlimit:4;stroke-dasharray:none;stroke-opacity:1"
       id="path62-7"
       cx="20.102589"
       cy="55.248871"
       rx="4.0502062"
       ry="4.0318851"
       inkscape:export-xdpi="96"
       inkscape:export-ydpi="96" />
    <text
       xml:space="preserve"
       style="font-style:normal;font-weight:normal;font-size:11.23719406px;line-height:1.25;font-family:sans-serif;letter-spacing:0px;word-spacing:0px;fill:#000000;fill-opacity:1;stroke:none;stroke-width:0.1203985"
       x="18.188656"
       y="57.214966"
       id="text66-3-5"
       inkscape:transform-center-x="-4.3877226"
       inkscape:transform-center-y="-4.5577756"
       transform="scale(0.9811667,1.0191948)"
       inkscape:export-xdpi="96"
       inkscape:export-ydpi="96"><tspan
         sodipodi:role="line"
         id="tspan64-6-3"
         x="18.188656"
         y="57.214966"
         style="font-size:11.23719406px;fill:#000000;stroke-width:0.1203985">-</tspan></text>
    <ellipse
       style="opacity:1;fill:#008000;fill-opacity:0.96256684;stroke:#005a00;stroke-width:0;stroke-miterlimit:4;stroke-dasharray:none;stroke-opacity:1"
       id="path62-5"
       cx="40.034092"
       cy="17.79497"
       rx="4.0502062"
       ry="4.0318851"
       inkscape:export-xdpi="96"
       inkscape:export-ydpi="96" />
    <text
       xml:space="preserve"
       style="font-style:normal;font-weight:normal;font-size:11.23719406px;line-height:1.25;font-family:sans-serif;letter-spacing:0px;word-spacing:0px;fill:#000000;fill-opacity:1;stroke:none;stroke-width:0.1203985"
       x="38.588741"
       y="20.466446"
       id="text66-3-6"
       inkscape:transform-center-x="-4.3877252"
       inkscape:transform-center-y="-4.5577716"
       transform="scale(0.9811667,1.0191948)"
       inkscape:export-xdpi="96"
       inkscape:export-ydpi="96"><tspan
         sodipodi:role="line"
         id="tspan64-6-2"
         x="38.588741"
         y="20.466446"
         style="font-size:11.23719406px;fill:#000000;stroke-width:0.1203985">-</tspan></text>
    <ellipse
       style="opacity:1;fill:#008000;fill-opacity:0.96256684;stroke:#005a00;stroke-width:0;stroke-miterlimit:4;stroke-dasharray:none;stroke-opacity:1"
       id="path62-9"
       cx="52.647556"
       cy="67.600616"
       rx="4.0502062"
       ry="4.0318851"
       inkscape:export-xdpi="96"
       inkscape:export-ydpi="96" />
    <text
       xml:space="preserve"
       style="font-style:normal;font-weight:normal;font-size:11.23719406px;line-height:1.25;font-family:sans-serif;letter-spacing:0px;word-spacing:0px;fill:#000000;fill-opacity:1;stroke:none;stroke-width:0.1203985"
       x="51.358315"
       y="69.334091"
       id="text66-3-1"
       inkscape:transform-center-x="-4.3877193"
       inkscape:transform-center-y="-4.5577872"
       transform="scale(0.9811667,1.0191948)"
       inkscape:export-xdpi="96"
       inkscape:export-ydpi="96"><tspan
         sodipodi:role="line"
         id="tspan64-6-27"
         x="51.358315"
         y="69.334091"
         style="font-size:11.23719406px;fill:#000000;stroke-width:0.1203985">-</tspan></text>
    <text
       xml:space="preserve"
       style="font-style:normal;font-weight:normal;font-size:9.79716969px;line-height:1.25;font-family:sans-serif;letter-spacing:0px;word-spacing:0px;fill:#008000;fill-opacity:1;stroke:none;stroke-width:0.09184846"
       x="-3.0792606"
       y="62.970642"
       id="text951"
       transform="matrix(0.8966802,-0.79134085,0.52975401,0.64770474,0,0)"
       inkscape:export-xdpi="96"
       inkscape:export-ydpi="96"><tspan
         sodipodi:role="line"
         id="tspan949"
         x="-3.0792606"
         y="62.970642"
         style="font-size:12.24646282px;fill:#008000;stroke-width:0.09184846">Py</tspan></text>
    <ellipse
       style="opacity:1;fill:#d4ff2a;fill-opacity:1;stroke:#008000;stroke-width:0.59171629;stroke-miterlimit:4;stroke-dasharray:none;stroke-opacity:0.96470588"
       id="path953"
       cx="95.710693"
       cy="20.83251"
       rx="7.8334365"
       ry="11.992891"
       transform="matrix(0.86900678,0.49480018,-0.46669706,0.88441724,0,0)"
       inkscape:export-xdpi="96"
       inkscape:export-ydpi="96" />
    <ellipse
       style="opacity:1;fill:none;fill-opacity:1;stroke:#008000;stroke-width:0.45521379;stroke-miterlimit:4;stroke-dasharray:none;stroke-opacity:0.96470588"
       id="path955"
       cx="102.9306"
       cy="-6.5755157"
       rx="2.0633314"
       ry="3.4435143"
       transform="matrix(0.70618001,0.70803234,-0.68069804,0.73256412,0,0)"
       inkscape:transform-center-x="1.6875827"
       inkscape:transform-center-y="8.764971"
       inkscape:export-xdpi="96"
       inkscape:export-ydpi="96" />
    <g
       id="g1007"
       style="fill:#d4ff2a;stroke:#008000;stroke-width:1;stroke-miterlimit:4;stroke-dasharray:none;stroke-opacity:0.96470588"
       transform="matrix(0.44647941,0,0,0.46378407,-4.4952147,-44.687474)"
       inkscape:export-xdpi="96"
       inkscape:export-ydpi="96">
      <path
         inkscape:connector-curvature="0"
         id="path968"
         d="M 157.23809,256.93451 140.60714,269.7857"
         style="fill:#d4ff2a;stroke:#008000;stroke-width:1;stroke-linecap:butt;stroke-linejoin:miter;stroke-miterlimit:4;stroke-dasharray:none;stroke-opacity:0.96470588" />
      <path
         inkscape:connector-curvature="0"
         id="path968-0"
         d="m 159.32276,258.23479 -16.63095,12.85119"
         style="fill:#d4ff2a;stroke:#008000;stroke-width:1;stroke-linecap:butt;stroke-linejoin:miter;stroke-miterlimit:4;stroke-dasharray:none;stroke-opacity:0.96470588" />
      <path
         inkscape:connector-curvature="0"
         id="path991"
         d="m 140.3165,269.7385 c -0.17818,0.44545 -0.35636,0.8909 -0.53454,1.33635 -0.0891,0 -0.20427,-0.063 -0.26727,0 -2.5e-4,2.4e-4 5.3e-4,0.80058 0,0.8018 -0.0398,0.11954 -0.22743,0.14774 -0.26727,0.26728 -0.0563,0.16901 0.0797,0.37515 0,0.53454 -0.0398,0.0797 -0.20427,-0.063 -0.26727,0 -0.063,0.063 0.0399,0.18759 0,0.26725 -0.0714,0.14274 -0.6611,0.66112 -0.8018,0.80182 0.62363,0.0891 1.24092,0.26727 1.87088,0.26727 0.0891,0 -0.063,-0.20427 0,-0.26727 0.063,-0.063 0.20428,0.063 0.26727,0 0.12599,-0.12599 -0.12599,-0.40855 0,-0.53454 0.12599,-0.12599 0.40855,0.12599 0.53454,0 0.063,-0.063 -0.063,-0.20427 0,-0.26727 0.063,-0.063 0.18759,0.0399 0.26727,0 0.11269,-0.0563 0.15458,-0.21092 0.26727,-0.26727 0.0797,-0.0398 0.20427,0.063 0.26727,0 0,-0.71272 -0.0891,0.0891 0.26727,-0.26727 0.12599,-0.12599 -0.12599,-0.40854 0,-0.53453 0.063,-0.063 0.20427,0.063 0.26727,0 0.063,-0.063 -0.0891,-0.26727 0,-0.26727 0.0891,0 -0.063,0.33026 0,0.26727 0.14086,-0.14087 0.1264,-0.39368 0.26727,-0.53454 0.063,-0.063 0.26727,-0.0891 0.26727,0 0,0.0891 -0.26727,0.0891 -0.26727,0 0,-0.19921 0.17818,-0.35636 0.26727,-0.53454"
         style="fill:#d4ff2a;stroke:#008000;stroke-width:1;stroke-linecap:butt;stroke-linejoin:miter;stroke-miterlimit:4;stroke-dasharray:none;stroke-opacity:0.96470588" />
    </g>
    <ellipse
       style="opacity:1;fill:#008000;fill-opacity:1;stroke:#000000;stroke-width:0.49134403;stroke-miterlimit:4;stroke-dasharray:none;stroke-opacity:0"
       id="path1009"
       cx="40.582172"
       cy="106.02119"
       rx="1.9374083"
       ry="1.4674376"
       transform="matrix(0.74741203,-0.66436078,0.44081252,0.8975992,0,0)"
       inkscape:export-xdpi="96"
       inkscape:export-ydpi="96" />
    <text
       xml:space="preserve"
       style="font-style:normal;font-weight:normal;font-size:11.80806446px;line-height:1.25;font-family:sans-serif;letter-spacing:0px;word-spacing:0px;fill:#008000;fill-opacity:1;stroke:none;stroke-width:0.11070059"
       x="52.383648"
       y="4.3318262"
       id="text951-9"
       transform="matrix(0.84169602,0.54492026,-0.55269518,0.83025841,0,0)"
       inkscape:transform-center-x="1.7752546"
       inkscape:transform-center-y="-1.3314443"
       inkscape:export-xdpi="96"
       inkscape:export-ydpi="96"><tspan
         sodipodi:role="line"
         id="tspan949-3"
         x="52.383648"
         y="4.3318262"
         style="font-size:13.28407288px;fill:#008000;stroke-width:0.11070059">E</tspan></text>
    <text
       xml:space="preserve"
       style="font-style:normal;font-weight:normal;font-size:11.80806446px;line-height:1.25;font-family:sans-serif;letter-spacing:0px;word-spacing:0px;fill:#008000;fill-opacity:1;stroke:none;stroke-width:0.11070059"
       x="61.723541"
       y="-3.5179603"
       id="text951-9-6"
       transform="matrix(0.77290967,0.63874949,-0.6451472,0.76064847,0,0)"
       inkscape:export-xdpi="96"
       inkscape:export-ydpi="96"><tspan
         sodipodi:role="line"
         id="tspan949-3-0"
         x="61.723541"
         y="-3.5179603"
         style="font-size:13.28407288px;fill:#008000;stroke-width:0.11070059">F</tspan></text>
    <text
       xml:space="preserve"
       style="font-style:normal;font-weight:normal;font-size:11.80806446px;line-height:1.25;font-family:sans-serif;letter-spacing:0px;word-spacing:0px;fill:#008000;fill-opacity:1;stroke:none;stroke-width:0.11070059"
       x="62.181602"
       y="0.52333409"
       id="text951-9-62"
       transform="matrix(0.87088861,0.68159359,-0.60289935,0.67639841,0,0)"
       inkscape:export-xdpi="96"
       inkscape:export-ydpi="96"><tspan
         sodipodi:role="line"
         id="tspan949-3-6"
         x="62.181602"
         y="0.52333409"
         style="font-size:13.28407288px;fill:#008000;stroke-width:0.11070059">F</tspan></text>
    <path
       style="opacity:1;fill:#d4ff2a;fill-opacity:1;stroke:#000000;stroke-width:0.21127295;stroke-miterlimit:4;stroke-dasharray:none;stroke-opacity:0"
       d="m 67.759983,59.468826 c -0.0012,-0.0151 0.04507,-0.1385 0.10288,-0.27427 0.332147,-0.78017 0.909486,-2.47156 1.161055,-3.40152 0.07499,-0.27719 0.151666,-0.52131 0.170401,-0.54249 0.02491,-0.0282 1.977556,0.67382 2.055178,0.73884 0.0061,0.005 -0.104901,0.0938 -0.246662,0.1971 -0.994403,0.72457 -2.062882,1.80389 -3.10574,3.13727 -0.07419,0.0949 -0.135895,0.16015 -0.137112,0.14507 z"
       id="path1061"
       inkscape:connector-curvature="0"
       inkscape:export-xdpi="96"
       inkscape:export-ydpi="96" />
    <path
       style="opacity:1;fill:#d4ff2a;fill-opacity:1;stroke:#000000;stroke-width:0.21127295;stroke-miterlimit:4;stroke-dasharray:none;stroke-opacity:0"
       d="m 58.824609,80.956066 c -0.14475,-0.0644 -0.263409,-0.13019 -0.263687,-0.14615 -2.37e-4,-0.0159 1.634362,-1.3412 3.632525,-2.94496 l 3.633031,-2.91593 0.16769,0.22037 c 0.09223,0.1212 0.161302,0.22598 0.153493,0.23285 -0.0078,0.007 -1.570999,1.26035 -3.473751,2.78551 -1.902752,1.52517 -3.488028,2.79832 -3.522837,2.82923 -0.05231,0.0465 -0.108932,0.0359 -0.326464,-0.0609 z"
       id="path1063"
       inkscape:connector-curvature="0"
       inkscape:export-xdpi="96"
       inkscape:export-ydpi="96" />
    <path
       style="opacity:1;fill:#d4ff2a;fill-opacity:1;stroke:#000000;stroke-width:0.21127295;stroke-miterlimit:4;stroke-dasharray:none;stroke-opacity:0"
       d="m 67.842139,59.333806 c 0,-0.0146 0.121652,-0.34889 0.270337,-0.74283 0.276664,-0.73301 0.720786,-2.07238 0.953313,-2.87497 0.153127,-0.52853 0.03408,-0.50976 1.007326,-0.1588 0.356877,0.12869 0.66539,0.22337 0.685582,0.21041 0.02018,-0.013 0.0367,-0.005 0.0367,0.0186 0,0.0457 0.245806,0.14797 0.289628,0.12051 0.01474,-0.009 0.04998,0.009 0.07831,0.0411 0.04161,0.0468 -0.007,0.10244 -0.253138,0.28971 -0.815986,0.62082 -1.845339,1.63307 -2.600706,2.55752 -0.471409,0.57693 -0.46737,0.57227 -0.46737,0.53876 z"
       id="path1065"
       inkscape:connector-curvature="0"
       inkscape:export-xdpi="96"
       inkscape:export-ydpi="96" />
    <path
       style="fill:#008000;stroke:#078400;stroke-width:0.36511213;stroke-linecap:butt;stroke-linejoin:miter;stroke-miterlimit:4;stroke-dasharray:none;stroke-opacity:1"
       d="m 65.654399,74.741196 c 0.245944,-3.20729 0.872702,-5.57256 3.037135,-8.98289"
       id="path1079"
       inkscape:connector-curvature="0"
       sodipodi:nodetypes="cc"
       inkscape:export-xdpi="96"
       inkscape:export-ydpi="96" />
  </g>
</svg>
